<svg width="163" height="42" viewBox="0 0 163 42" fill="none"
  xmlns="http://www.w3.org/2000/svg">
  <path d="M66.9947 29.9107C64.8354 29.9107 63.1246 29.3318 61.8623 28.1739C60.5999 27 59.9688 25.3275 59.9688 23.1565V19.1039C59.9688 16.9329 60.5999 15.2684 61.8623 14.1105C63.1246 12.9366 64.8354 12.3496 66.9947 12.3496C69.1373 12.3496 70.79 12.9205 71.9527 14.0623C73.1319 15.188 73.7216 16.7399 73.7216 18.7179V18.8627H70.4827V18.6214C70.4827 17.6244 70.192 16.8042 69.6107 16.161C69.046 15.5177 68.1739 15.1961 66.9947 15.1961C65.832 15.1961 64.9184 15.5418 64.2541 16.2333C63.5897 16.9248 63.2575 17.8656 63.2575 19.0556V23.2047C63.2575 24.3787 63.5897 25.3194 64.2541 26.027C64.9184 26.7185 65.832 27.0643 66.9947 27.0643C68.1739 27.0643 69.046 26.7427 69.6107 26.0994C70.192 25.4401 70.4827 24.6199 70.4827 23.6389V23.2047H73.7216V23.5424C73.7216 25.5205 73.1319 27.0804 71.9527 28.2222C70.79 29.3479 69.1373 29.9107 66.9947 29.9107Z" fill="#2C2E33"/>
  <path d="M75.0131 29.573L80.1205 21.0578L75.0629 12.6873H78.8001L82.2632 18.7903H82.7117L86.1748 12.6873H89.912L84.8543 21.0578L89.9618 29.573H86.2246L82.7117 23.3253H82.2632L78.7502 29.573H75.0131Z" fill="#2C2E33"/>
  <path d="M104.498 29.9107C103.303 29.9107 102.215 29.6534 101.235 29.1388C100.271 28.6081 99.499 27.8443 98.9176 26.8472C98.3529 25.8341 98.0705 24.6038 98.0705 23.1565V19.1039C98.0705 16.9329 98.7017 15.2684 99.964 14.1105C101.226 12.9366 102.937 12.3496 105.096 12.3496C107.239 12.3496 108.892 12.9044 110.054 14.0141C111.234 15.1076 111.823 16.5952 111.823 18.4767V18.5732H108.584V18.3802C108.584 17.7852 108.452 17.2465 108.186 16.764C107.937 16.2816 107.555 15.9036 107.04 15.6303C106.525 15.3408 105.877 15.1961 105.096 15.1961C103.934 15.1961 103.02 15.5418 102.356 16.2333C101.691 16.9248 101.359 17.8656 101.359 19.0556V23.2047C101.359 24.3787 101.691 25.3275 102.356 26.0512C103.02 26.7587 103.95 27.1125 105.146 27.1125C106.342 27.1125 107.214 26.807 107.762 26.1959C108.31 25.5848 108.584 24.8129 108.584 23.8801V23.6389H104.449V20.9372H111.823V29.573H108.784V27.9568H108.335C108.219 28.2302 108.028 28.5197 107.762 28.8252C107.513 29.1308 107.131 29.3881 106.616 29.5972C106.101 29.8062 105.395 29.9107 104.498 29.9107Z" fill="#2C2E33"/>
  <path d="M120.696 29.9107C119.467 29.9107 118.379 29.6615 117.432 29.1629C116.502 28.6483 115.771 27.9327 115.239 27.0161C114.724 26.0833 114.467 24.9898 114.467 23.7354V23.4459C114.467 22.1916 114.724 21.1061 115.239 20.1894C115.754 19.2567 116.477 18.541 117.407 18.0425C118.337 17.5279 119.417 17.2706 120.646 17.2706C121.858 17.2706 122.913 17.5359 123.81 18.0666C124.707 18.5812 125.405 19.3049 125.903 20.2376C126.401 21.1543 126.65 22.2237 126.65 23.4459V24.4832H117.656C117.689 25.3034 118.005 25.9707 118.603 26.4854C119.201 27 119.932 27.2573 120.795 27.2573C121.676 27.2573 122.323 27.0723 122.739 26.7025C123.154 26.3326 123.469 25.9225 123.685 25.4722L126.252 26.7748C126.019 27.1929 125.679 27.6513 125.23 28.1498C124.798 28.6323 124.217 29.0504 123.486 29.4042C122.755 29.7419 121.825 29.9107 120.696 29.9107ZM117.681 22.2157H123.461C123.395 21.5242 123.104 20.9694 122.589 20.5512C122.091 20.1331 121.435 19.9241 120.621 19.9241C119.774 19.9241 119.101 20.1331 118.603 20.5512C118.105 20.9694 117.797 21.5242 117.681 22.2157Z" fill="#2C2E33"/>
  <path d="M129.444 29.573V17.6083H132.534V19.1763H132.982C133.182 18.7581 133.555 18.3641 134.103 17.9943C134.652 17.6083 135.482 17.4153 136.595 17.4153C137.558 17.4153 138.397 17.6324 139.111 18.0666C139.842 18.4847 140.407 19.0717 140.805 19.8276C141.204 20.5673 141.403 21.4357 141.403 22.4328V29.573H138.264V22.674C138.264 21.7734 138.032 21.098 137.567 20.6477C137.118 20.1974 136.47 19.9723 135.623 19.9723C134.66 19.9723 133.912 20.2859 133.381 20.9131C132.849 21.5242 132.584 22.3845 132.584 23.4942V29.573H129.444Z" fill="#2C2E33"/>
  <path d="M144.797 29.573V17.6083H147.936V29.573H144.797ZM146.367 16.2092C145.802 16.2092 145.32 16.0323 144.922 15.6785C144.54 15.3247 144.349 14.8583 144.349 14.2794C144.349 13.7005 144.54 13.2341 144.922 12.8803C145.32 12.5265 145.802 12.3496 146.367 12.3496C146.948 12.3496 147.43 12.5265 147.812 12.8803C148.194 13.2341 148.385 13.7005 148.385 14.2794C148.385 14.8583 148.194 15.3247 147.812 15.6785C147.43 16.0323 146.948 16.2092 146.367 16.2092Z" fill="#2C2E33"/>
  <path d="M157.046 29.9107C155.817 29.9107 154.729 29.6615 153.782 29.1629C152.852 28.6483 152.121 27.9327 151.589 27.0161C151.074 26.0833 150.817 24.9898 150.817 23.7354V23.4459C150.817 22.1916 151.074 21.1061 151.589 20.1894C152.104 19.2567 152.827 18.541 153.757 18.0425C154.687 17.5279 155.767 17.2706 156.996 17.2706C158.208 17.2706 159.263 17.5359 160.16 18.0666C161.057 18.5812 161.754 19.3049 162.253 20.2376C162.751 21.1543 163 22.2237 163 23.4459V24.4832H154.006C154.039 25.3034 154.355 25.9707 154.953 26.4854C155.551 27 156.282 27.2573 157.145 27.2573C158.026 27.2573 158.673 27.0723 159.089 26.7025C159.504 26.3326 159.819 25.9225 160.035 25.4722L162.602 26.7748C162.369 27.1929 162.029 27.6513 161.58 28.1498C161.148 28.6323 160.567 29.0504 159.836 29.4042C159.105 29.7419 158.175 29.9107 157.046 29.9107ZM154.031 22.2157H159.811C159.745 21.5242 159.454 20.9694 158.939 20.5512C158.441 20.1331 157.785 19.9241 156.971 19.9241C156.124 19.9241 155.451 20.1331 154.953 20.5512C154.455 20.9694 154.147 21.5242 154.031 22.2157Z" fill="#2C2E33"/>
  <path fill-rule="evenodd" clip-rule="evenodd" d="M24.0665 41.0978C29.9961 41.0978 35.9256 39.8098 40.404 37.2431C45.4975 34.3449 47.9481 30.3197 47.1312 26.1808V26.0577C47.1312 25.802 43.6523 0.902344 24.0665 0.902344C4.44233 0.902344 1.00185 25.802 1.00185 26.0577V26.2376C0.252246 30.3576 2.70287 34.3544 7.72905 37.2431C12.217 39.8098 18.1082 41.0978 24.0665 41.0978ZM23.8331 8.16656C26.2617 8.16656 28.2304 7.19086 28.2304 5.98728C28.2304 4.7837 26.2617 3.80801 23.8331 3.80801C21.4045 3.80801 19.4357 4.7837 19.4357 5.98728C19.4357 7.19086 21.4045 8.16656 23.8331 8.16656ZM40.5598 11.169C42.3709 14.0796 43.7784 17.225 44.7434 20.5181C45.5439 24.0623 43.3425 27.7502 38.854 30.3556C34.4344 32.7247 29.4914 33.9339 24.4831 33.8711C23.5456 33.8885 22.6213 33.6466 21.8113 33.172C21.0013 32.6973 20.3365 32.008 19.8897 31.1794L19.8421 31.0932C19.1836 29.9148 18.8587 28.5777 18.9023 27.2269C18.946 25.8761 19.3567 24.563 20.0898 23.4301C20.4847 22.8039 21.0288 22.2868 21.6728 21.9255C22.3169 21.5642 23.0404 21.3702 23.7779 21.361H24.0352C28.0627 21.446 32.044 20.486 35.5948 18.5736C38.9398 16.6578 40.7028 13.9565 40.5598 11.169Z" fill="#364DE7"/>
  <path d="M41.2082 24.1477H41.1187C41.1187 24.1477 41.1188 24.1477 41.1187 24.1477C41.0471 24.1481 40.9758 24.1383 40.9057 24.1189C40.6703 24.0739 40.4469 23.9862 40.2492 23.8606C39.9927 23.6975 39.7889 23.4763 39.6584 23.2194C39.2734 22.5775 39.0496 21.8676 39.0028 21.1396C38.8438 19.3455 39.5492 17.9263 40.6518 17.8548C41.7545 17.7834 42.7082 19.0866 42.8672 20.8719C43.0261 22.6571 42.3108 24.0763 41.2082 24.1477Z" fill="#364DE7"/>
  <path d="M30.5318 30.2265C29.9338 30.6604 29.2273 30.904 28.4985 30.9276C28.0125 30.9315 27.5305 30.8351 27.0806 30.6439C26.6307 30.4527 26.2217 30.1705 25.8774 29.8137C25.3684 29.2707 25.0224 28.5853 24.8814 27.8412C24.7405 27.0972 24.8107 26.3265 25.0836 25.6233C25.3565 24.92 25.8202 24.3145 26.4182 23.8805C27.0162 23.4466 27.7227 23.203 28.4515 23.1794C28.9377 23.1744 29.42 23.2703 29.87 23.4616C30.3201 23.6528 30.7289 23.9356 31.0726 24.2933C31.5816 24.8363 31.9276 25.5217 32.0686 26.2658C32.2095 27.0098 32.1393 27.7805 31.8664 28.4837C31.5936 29.187 31.1298 29.7925 30.5318 30.2265Z" fill="#364DE7"/>
</svg>
